<?xml version="1.0" encoding="utf-8"?>
<!-- Generator: Adobe Illustrator 25.0.1, SVG Export Plug-In . SVG Version: 6.00 Build 0)  -->
<svg version="1.1" id="Layer_1" xmlns="http://www.w3.org/2000/svg" xmlns:xlink="http://www.w3.org/1999/xlink" x="0px"
	 y="0px"
	 viewBox="0 0 360 160" style="enable-background:new 0 0 360 160;" xml:space="preserve">
<style type="text/css">
	.st0{fill:#231F20;}
</style>
	<g>
	<path d="M20.7,62.1c-3.4,0-7.5-0.3-10.3-1.1c-4.8-1.3-4.9-4.5-4.9-7.5V14.9c0-3,0.1-6.1,4.9-7.5c2.4-0.7,7-1.1,10.7-1.1
		c19.1,0,29.7,10.3,29.7,27.7C50.8,51.8,39.7,62.1,20.7,62.1z M21.4,52.2C33,52.2,39,45.4,39,34.3c0-11.3-6.2-18.1-17.6-18.1
		c-1.4,0-2.9,0.1-4.5,0.3v35.3C18.5,52.1,20,52.2,21.4,52.2z"/>
		<path d="M73.1,46.1c-2,0-3.7-0.2-5-0.5v11.8c0,3-1.8,4.5-5.7,4.5s-5.7-1.5-5.7-4.5V14.9c0-3,0.1-6.1,4.9-7.5
		c2.4-0.7,6.7-1.1,10.2-1.1c13.5,0,23.3,6,23.3,19.6C95.1,40,84.7,46.1,73.1,46.1z M72.1,36.3c7.2,0,11.3-3.6,11.3-10
		c0-7.1-5-10.1-11.7-10.1c-1.2,0-2.4,0.1-3.6,0.3v19.3C69.5,36.2,70.9,36.3,72.1,36.3z"/>
		<path d="M134,52.4c3.2,0,5.8-0.7,8.2-2.2c1.8-1,2.9-1.9,4.1-1.9c2.4,0,4.9,3,4.9,5.4c0,2-1.7,3.8-4.4,5.4
		c-3.6,2.2-8.3,3.4-13.5,3.4c-14.9,0-26.1-10.5-26.1-28.4S118.3,6,133.2,6c5.2,0,9.7,1.2,13.6,3.4c2.7,1.5,4.4,3.4,4.4,5.3
		c0,2.4-2.5,5.5-5.1,5.5c-1.3,0-2.4-0.9-4-1.9c-2.3-1.4-5.3-2.2-8.4-2.2c-8.1,0-14.7,5.5-14.7,17.8C118.9,46.3,125.6,52.4,134,52.4z
		"/>
		<path d="M167.1,57.4c0,3-1.8,4.5-5.6,4.5c-3.8,0-5.6-1.5-5.6-4.5V27.6c0-3,1.8-4.5,5.5-4.5c3.9,0,5.3,1.9,5.2,4.5v1.7
		c1.8-3.7,5.2-6.3,9.7-6.3c3.2,0,4.6,1.5,4.6,5c0,3.9-1.8,5-5.1,5.2c-4.6,0.2-6.9,1.1-8.6,3.7V57.4z"/>
		<path d="M217.2,55.2c0,2-1.3,3-2.9,4c-2.9,1.8-7,2.9-12,2.9c-12.5,0-19.6-7.2-19.6-19.5c0-12.2,7-20,18.2-20
		c11.1,0,17.3,7.6,17.3,16.5c0,5.9-2.9,6.6-6.4,6.6h-18.3c0.9,4.7,3.8,7.2,9,7.2c2.7,0,4.9-0.8,6.9-1.8c1.3-0.7,2.3-1.1,3.3-1.1
		C215.4,50.2,217.2,52.9,217.2,55.2z M193.4,38.5h14.1c0-4-2.1-7.2-6.8-7.2C196.5,31.3,194.1,33.8,193.4,38.5z"/>
		<path d="M237.5,32.1c-2,0-4.5,0.5-7,1.7c-1.4,0.7-2.5,1.2-3.5,1.2c-2.6,0-4.3-3.1-4.3-5.3c0-1.6,0.9-2.8,3-3.9
		c3.5-1.9,8-2.9,12.8-2.9c6,0,10.5,1.5,13,4.5c1.8,2.1,2.6,5.3,2.6,9.4v20.6c0,3.2-1.5,4.6-5.5,4.6c-3.4,0-4.7-1-4.7-3.4v-0.7
		c-2.4,2.8-5.9,4.1-10.4,4.1c-7.7,0-12.4-4.2-12.4-10.9c0-7.6,6-11.8,22.2-13.3v-0.6C243.3,34,241.9,32.1,237.5,32.1z M232.6,50
		c0,1.9,1.3,3.4,4.5,3.4c2.2,0,4.4-0.8,6.3-2.4v-6.8C236.1,45.2,232.6,46.7,232.6,50z"/>
		<path d="M288.5,57c0,1.2-0.4,2.4-2,3.3c-1.8,1.1-5,1.8-8.3,1.8c-6,0-9.7-2.4-11.5-5.8c-1.7-3-1.8-6.6-1.8-10.5V33.2h-2.9
		c-3,0-4.5-1.5-4.5-4.7c0-3.2,1.5-4.7,4.5-4.7h2.9v-7.4c0-3,1.8-4.5,5.6-4.5c3.8,0,5.6,1.5,5.6,4.5v7.4h7.1c3,0,4.5,1.5,4.5,4.7
		c0,3.2-1.5,4.7-4.5,4.7h-7.1v12.6c0,1.5,0,3.7,0.8,5.1c0.6,1.2,1.7,1.7,3.1,1.7c0.9,0,1.8-0.3,2.6-0.4c0.7-0.2,1.3-0.3,1.9-0.3
		C287.6,51.9,288.5,55.1,288.5,57z"/>
		<path d="M310.2,22.6c11.9,0,19.4,7.9,19.4,19.7c0,12.2-7.7,20-19.7,20c-11.9,0-19.3-7.8-19.3-19.7
		C290.5,30.5,298.3,22.6,310.2,22.6z M310.1,53.3c4.9,0,7.9-4.1,7.9-10.7c0-6.8-3.2-10.8-8.1-10.8c-4.9,0-7.9,4-7.9,10.6
		C302.1,49.2,305.2,53.3,310.1,53.3z"/>
		<path d="M344.3,57.4c0,3-1.8,4.5-5.6,4.5c-3.8,0-5.6-1.5-5.6-4.5V27.6c0-3,1.8-4.5,5.5-4.5c3.9,0,5.3,1.9,5.2,4.5v1.7
		c1.8-3.7,5.2-6.3,9.7-6.3c3.2,0,4.6,1.5,4.6,5c0,3.9-1.8,5-5.1,5.2c-4.6,0.2-6.9,1.1-8.6,3.7V57.4z"/>
</g>
	<g>
	<g id="Text">
		<path class="st0" d="M178.1,100.4c11.6,0,19.2,8.2,19.2,20.8s-7.6,20.8-19.2,20.8c-11.7,0-19.3-8.2-19.3-20.8
			S166.4,100.4,178.1,100.4z M178.1,137.4c8.3,0,13.8-6.3,13.8-16.2s-5.5-16.2-13.8-16.2c-8.4,0-13.8,6.3-13.8,16.2
			S169.7,137.4,178.1,137.4L178.1,137.4z"/>
		<path class="st0" d="M207.6,151.3c0,1.4-0.8,2.2-2.5,2.2c-1.8,0-2.6-0.7-2.6-2.2v-35.5c0-1.5,0.9-2.2,2.5-2.2
			c1.7,0,2.3,0.6,2.3,1.7v1.4c2-2.2,4.6-3.2,7.8-3.2c7.1,0,12.2,5.2,12.2,13.9c0,8.7-5.4,14.2-13.4,14.2c-2.5,0-4.6-0.6-6.3-1.7
			L207.6,151.3z M213.3,137.4c5.2,0,8.6-3.7,8.6-9.7c0-6.2-3.3-9.9-8.3-9.9c-2.2,0-4.4,0.8-6,2.4v15.3
			C209.2,136.8,211.2,137.4,213.3,137.4z"/>
		<path class="st0" d="M255.3,137c0,0.9-0.6,1.6-1.8,2.4c-2.3,1.5-5.1,2.3-8.5,2.3c-8.2,0-13.2-5.4-13.2-14.1
			c0-8.6,4.8-14.3,12.4-14.3c7.1,0,11.6,5.1,11.6,12.1c0,3.3-1.2,3.6-3.2,3.6h-15.7c0.5,5.1,3.1,8.2,8.3,8.2c2,0,4-0.4,5.7-1.5
			c0.9-0.6,1.5-1,2.2-1C254.5,134.7,255.3,136,255.3,137z M237,125.2h13.8c0-4.5-2.3-7.7-6.7-7.7C240,117.5,237.5,120.4,237,125.2z"
		/>
		<path class="st0" d="M267.1,115.8v2c1.6-2.5,4.6-4.3,8.8-4.3c3.9,0,6.3,1.3,7.9,3.6c1.2,1.7,1.8,4.1,1.8,7.3v15
			c0,1.4-0.8,2.2-2.5,2.2c-1.8,0-2.6-0.7-2.6-2.2v-14.2c0-1.8-0.3-3.6-1.2-4.9c-1-1.5-2.7-2.2-5-2.2c-3.3,0-5.5,1.5-6.8,3.5v17.8
			c0,1.4-0.8,2.2-2.5,2.2c-1.8,0-2.6-0.7-2.6-2.2v-23.5c0-1.4,0.8-2.2,2.5-2.2C266.5,113.7,267.1,114.5,267.1,115.8z"/>
		<path class="st0" d="M301.8,141.7c-2.4,0-5.2-0.2-7-0.6c-2.6-0.7-2.6-2-2.6-3.8v-32.2c0-1.6,0-3.1,2.6-3.8
			c1.6-0.4,4.7-0.6,7.2-0.6c14.3,0,22.2,7.3,22.2,20.3C324.2,134.3,315.9,141.7,301.8,141.7z M302,137.1c11,0,16.7-5.7,16.7-15.9
			c0-10.3-5.8-15.9-16.7-15.9c-1.5,0-3,0.1-4.6,0.4v31.1C299,137,300.5,137.1,302,137.1L302,137.1z"/>
		<path class="st0" d="M339.9,128.8c-1.5,0-3.1-0.1-4.6-0.4v11c0,1.4-0.8,2.2-2.6,2.2s-2.6-0.7-2.6-2.2v-34.3c0-1.6,0-3.1,2.6-3.8
			c1.6-0.4,4.4-0.6,6.6-0.6c9.5,0,16.4,4.3,16.4,13.9C355.7,124.1,348.9,128.8,339.9,128.8z M339.6,124.3c6.7,0,10.7-3.3,10.7-9.5
			c0-6.8-4.8-9.5-11-9.5c-1.3,0-2.6,0.1-3.9,0.4v18.2C336.7,124.1,338.1,124.3,339.6,124.3L339.6,124.3z"/>
	</g>
		<g id="Sprite">
		<path class="st0" d="M85.2,107.3c0.3-0.7,0-1.6-0.7-1.9l-1.2-0.6c-0.7-0.3-1.6,0-1.9,0.7s0,1.6,0.7,1.9l1.2,0.6
			C84,108.3,84.8,108,85.2,107.3C85.2,107.3,85.2,107.3,85.2,107.3L85.2,107.3z"/>
			<path class="st0" d="M89.5,110.9l6.2,3c0.7,0.3,1.6,0,1.9-0.7c0,0,0,0,0,0c0.3-0.7,0-1.6-0.7-1.9l-6.2-3c-0.7-0.3-1.6,0-1.9,0.7
			C88.4,109.7,88.7,110.6,89.5,110.9L89.5,110.9z"/>
			<path class="st0" d="M133.9,129.2l-6.2-3c-0.1-0.1-0.3-0.1-0.4-0.1c-0.1-0.1-0.2-0.2-0.4-0.3l-5.4-2.6l0,0l-1.1-0.5H145
			c0.8,0,1.4-0.6,1.4-1.4c0-0.8-0.6-1.4-1.4-1.4h-24.6l6.5-3.1c0.7-0.3,1-1.2,0.7-1.9c-0.3-0.7-1.2-1-1.9-0.7l0,0l-1.4,0.7l0,0
			l-5.1,2.5l5.7-7.1c0.5-0.6,0.4-1.5-0.2-2c-0.6-0.5-1.5-0.4-2,0.2l-3.6,4.5l-2,2.6l1.4-6.2l0,0l0.8-3.3c0.3-0.7-0.1-1.6-0.9-1.8
			s-1.6,0.1-1.8,0.9c0,0.1-0.1,0.2-0.1,0.3l-0.6,2.5l0,0l-0.5,2.2l0,0l-1.1,4.9l-1.6-7l0,0l-0.4-1.8c-0.1-0.8-0.9-1.3-1.7-1.1
			s-1.3,0.9-1.1,1.7c0,0,0,0.1,0,0.1l0.5,2.2l0,0l1.3,5.6l0,0l0.2,1.1l-6.6-8.3c-0.5-0.6-1.4-0.7-2-0.2c-0.6,0.5-0.7,1.4-0.2,2l0,0
			l2.1,2.7l0,0l4.5,5.6l-6.1-3l0,0l-0.4-0.2c-0.7-0.3-1.6,0-1.9,0.7c-0.3,0.7,0,1.6,0.7,1.9l0,0l6.5,3.1H85.1
			c-0.8,0-1.4,0.6-1.4,1.4c0,0.8,0.6,1.4,1.4,1.4h22.8l-1.3,0.6l0,0l-5.2,2.5c-0.1,0.1-0.2,0.1-0.3,0.2c-0.1,0-0.2,0-0.4,0.1
			l-5.9,2.8c-0.7,0.3-1,1.2-0.6,1.9c0.2,0.5,0.7,0.8,1.3,0.8c0.2,0,0.4,0,0.6-0.1l5.9-2.8c0.1-0.1,0.2-0.1,0.3-0.2
			c0.1,0,0.3-0.1,0.4-0.1l6.5-3.1l-4.5,5.7l0,0l-4.6,5.8c-0.5,0.6-0.4,1.5,0.2,2c0.6,0.5,1.5,0.4,2-0.2l9-11.3l0,0l0.1-0.1l-0.4,1.6
			l0,0l-1.7,7.6l0,0l-0.6,2.4c-0.2,0.8,0.3,1.5,1.1,1.7c0,0,0,0,0,0c0.1,0,0.2,0,0.3,0c0.7,0,1.2-0.5,1.4-1.1l0.8-3.3l0,0l0.3-1.2
			l0,0l1.6-7l0.5,2.3l0,0l0.1,0.4l1.7,7.6l0,0l0.5,2c0.1,0.7,0.7,1.1,1.4,1.1c0.1,0,0.2,0,0.3,0c0.8-0.2,1.3-0.9,1.1-1.7
			c0,0,0,0,0,0l-0.5-2.2l0,0l-1.3-5.6l0,0l-0.4-1.8L117,127l4.5,5.6l0,0l0,0c0.5,0.6,1.4,0.7,2,0.2c0.6-0.5,0.7-1.4,0.2-2l-4.5-5.7
			l6.5,3.1c0.1,0.1,0.3,0.1,0.4,0.1c0.1,0.1,0.2,0.2,0.3,0.3l6.2,3c0.2,0.1,0.4,0.1,0.6,0.1c0.8,0,1.4-0.6,1.4-1.4
			C134.7,129.9,134.4,129.4,133.9,129.2L133.9,129.2z"/>
			<path class="st0" d="M146.2,135.1l-6.2-3c-0.7-0.3-1.6,0-1.9,0.7c-0.3,0.7,0,1.6,0.7,1.9l6.2,3c0.7,0.3,1.6,0,1.9-0.7
			S147,135.5,146.2,135.1z"/>
			<path class="st0" d="M142.5,109c0.2,0,0.4,0,0.6-0.1l3.1-1.5c0.7-0.3,1-1.2,0.7-1.9c-0.3-0.7-1.2-1-1.9-0.7l0,0l-3.1,1.5
			c-0.7,0.3-1,1.2-0.7,1.9C141.5,108.7,142,109,142.5,109L142.5,109z"/>
			<path class="st0" d="M129.5,113.9c0.2,0.5,0.7,0.8,1.3,0.8c0.2,0,0.4,0,0.6-0.1l5.9-2.8c0.7-0.4,1-1.2,0.6-1.9
			c-0.3-0.7-1.2-1-1.9-0.6l-5.9,2.8C129.5,112.3,129.2,113.2,129.5,113.9z"/>
			<path class="st0" d="M90.9,132.5c-0.3-0.7-1.2-1-1.9-0.7c0,0,0,0,0,0l-3.1,1.5c-0.7,0.3-1.1,1.2-0.7,1.9c0.3,0.7,1.2,1.1,1.9,0.7
			c0,0,0.1,0,0.1,0l3.1-1.5C91,134,91.3,133.2,90.9,132.5C90.9,132.5,90.9,132.5,90.9,132.5z"/>
			<path class="st0" d="M105.8,91l0.5,2.2c0.1,0.7,0.7,1.1,1.4,1.1c0.1,0,0.2,0,0.3,0c0.8-0.2,1.3-0.9,1.1-1.7c0,0,0,0,0,0l-0.5-2.2
			c-0.2-0.8-0.9-1.3-1.7-1.1C106.1,89.4,105.6,90.2,105.8,91C105.8,91,105.8,91,105.8,91L105.8,91z"/>
			<path class="st0" d="M107.6,98.8l0.5,2.2c0.2,0.8,0.9,1.2,1.7,1.1c0.8-0.2,1.2-0.9,1.1-1.7l0,0l-0.5-2.2c-0.2-0.8-0.9-1.2-1.7-1.1
			C107.9,97.3,107.4,98,107.6,98.8z"/>
			<path class="st0" d="M104.6,85.4c0.1,0.8,0.9,1.3,1.7,1.1s1.3-0.9,1.1-1.7c0,0,0-0.1,0-0.1l-0.5-2.1c-0.1-0.8-0.9-1.3-1.6-1.2
			c-0.8,0.1-1.3,0.9-1.2,1.6c0,0.1,0,0.1,0,0.2L104.6,85.4z"/>
			<path class="st0" d="M120.5,148.9c0.8-0.2,1.2-0.9,1.1-1.7c0,0,0,0,0,0l-0.5-2.2c-0.2-0.8-0.9-1.3-1.7-1.1
			c-0.8,0.2-1.3,0.9-1.1,1.7l0,0l0.5,2.2C118.9,148.6,119.7,149.1,120.5,148.9C120.5,148.9,120.5,148.9,120.5,148.9L120.5,148.9z"/>
			<path class="st0" d="M122.8,152.8c-0.1-0.8-0.9-1.3-1.6-1.2c-0.8,0.1-1.3,0.9-1.2,1.6c0,0.1,0,0.1,0,0.2l0.5,2.2
			c0.2,0.8,0.9,1.2,1.7,1.1c0.8-0.2,1.2-0.9,1.1-1.7l0,0L122.8,152.8z"/>
			<path class="st0" d="M121.2,90.2c0.8,0.2,1.5-0.3,1.7-1.1c0,0,0,0,0,0l0.4-1.7c0.2-0.8-0.3-1.5-1.1-1.7c-0.8-0.2-1.5,0.3-1.7,1.1
			l-0.4,1.7C120,89.3,120.5,90.1,121.2,90.2z"/>
			<path class="st0" d="M119,100.3c0.8,0.2,1.5-0.3,1.7-1.1c0,0,0,0,0,0l0.8-3.3c0.2-0.8-0.3-1.5-1-1.7c-0.8-0.2-1.5,0.3-1.7,1
			c0,0,0,0,0,0l-0.8,3.3C117.7,99.3,118.2,100.1,119,100.3z"/>
			<path class="st0" d="M108.9,144.3c-0.8-0.2-1.5,0.3-1.7,1.1c0,0,0,0,0,0l-0.4,1.7c-0.2,0.8,0.3,1.5,1.1,1.7c0.1,0,0.2,0,0.3,0
			c0.7,0,1.2-0.5,1.4-1.1l0.4-1.7C110.2,145.2,109.7,144.5,108.9,144.3z"/>
			<path class="st0" d="M95.6,142.3l-4.3,5.4c-0.5,0.6-0.4,1.5,0.2,2c0.6,0.5,1.5,0.4,2-0.2l0,0l4.3-5.4c0.5-0.6,0.4-1.5-0.2-2
			C97,141.6,96.1,141.7,95.6,142.3L95.6,142.3z"/>
			<path class="st0" d="M128.3,105c0.4,0,0.8-0.2,1.1-0.5l4.3-5.4c0.5-0.6,0.4-1.5-0.2-2c-0.6-0.5-1.5-0.4-2,0.2l0,0l-4.3,5.4
			c-0.5,0.6-0.4,1.5,0.2,2C127.6,104.9,127.9,105,128.3,105L128.3,105z"/>
			<path class="st0" d="M98.8,104.2c0.5,0.6,1.4,0.7,2,0.2c0.6-0.5,0.7-1.4,0.2-2L96.7,97c-0.5-0.6-1.4-0.7-2-0.2
			c-0.6,0.5-0.7,1.4-0.2,2l0,0L98.8,104.2z"/>
			<path class="st0" d="M127.5,135.7c-0.5-0.6-1.4-0.7-2-0.2c-0.6,0.5-0.7,1.4-0.2,2l0,0l4.3,5.4c0.5,0.6,1.4,0.7,2,0.2
			c0.6-0.5,0.7-1.4,0.2-2l0,0L127.5,135.7z"/>
	</g>
</g>
	<g>
	<path d="M17.3,119.6c0,0.5-0.3,1.3-1,1.3c-0.4,0-1.2-0.3-2.1-0.3c-1.2,0-2.1,0.5-2.6,1.3c-0.6,0.9-0.6,2.2-0.6,3.2v0.5h3.3
		c0.8,0,1.2,0.4,1.2,1.2c0,0.8-0.4,1.2-1.2,1.2H11v11.4c0,0.8-0.4,1.2-1.4,1.2c-1,0-1.4-0.4-1.4-1.2v-11.4h-2
		c-0.8,0-1.2-0.4-1.2-1.2c0-0.8,0.4-1.2,1.2-1.2h2v-0.5c0-1.3,0-3.2,1.1-4.7c1-1.4,2.8-2.3,4.8-2.3c0.8,0,1.8,0.1,2.6,0.4
		C17.2,118.9,17.3,119.3,17.3,119.6z"/>
		<path d="M20.3,139.5c0,0.8-0.4,1.2-1.4,1.2c-1,0-1.4-0.4-1.4-1.2v-12.8c0-0.8,0.4-1.2,1.4-1.2c1,0,1.3,0.5,1.3,1.2v1.7
		c0.9-1.8,2.4-2.9,4.6-2.9c0.9,0,1.3,0.4,1.3,1.3c0,1-0.5,1.3-1.5,1.3c-2.2,0.1-3.4,0.8-4.2,2.6V139.5z"/>
		<path d="M34,125.3c4.5,0,7.3,3.1,7.3,7.7c0,4.7-2.9,7.8-7.4,7.8c-4.5,0-7.3-3.1-7.3-7.7C26.6,128.3,29.5,125.3,34,125.3z M34,138.5
		c2.7,0,4.4-2.1,4.4-5.4c0-3.4-1.7-5.5-4.4-5.5c-2.7,0-4.4,2.1-4.4,5.4C29.6,136.4,31.3,138.5,34,138.5z"/>
		<path d="M46.4,126.6v1.1c0.8-1.3,2.5-2.3,4.7-2.3c2.4,0,3.8,1,4.5,2.9c0.9-1.7,2.7-2.9,5.1-2.9c1.8,0,3.2,0.6,4.1,1.9
		c0.6,0.9,1,2.3,1,4v8.2c0,0.8-0.4,1.2-1.4,1.2c-1,0-1.4-0.4-1.4-1.2v-7.7c0-1-0.1-2-0.6-2.7c-0.5-0.8-1.4-1.1-2.6-1.1
		c-1.6,0-2.9,0.8-3.6,1.9v9.7c0,0.8-0.4,1.2-1.4,1.2c-1,0-1.4-0.4-1.4-1.2v-8c0-1-0.2-1.8-0.6-2.5c-0.5-0.8-1.4-1.1-2.6-1.1
		c-1.6,0-2.9,0.8-3.6,1.9v9.7c0,0.8-0.4,1.2-1.4,1.2c-1,0-1.4-0.4-1.4-1.2v-12.8c0-0.8,0.4-1.2,1.4-1.2
		C46.1,125.4,46.5,125.9,46.4,126.6z"/>
</g>
</svg>
